<svg width="165" height="124" viewBox="0 0 165 124" fill="none" xmlns="http://www.w3.org/2000/svg">
<mask id="mask0_104_2836" style="mask-type:luminance" maskUnits="userSpaceOnUse" x="0" y="0" width="165" height="124">
<path d="M0.152344 0.368896H164.152V123.369H0.152344V0.368896Z" fill="white"/>
</mask>
<g mask="url(#mask0_104_2836)">
<path d="M104.507 0.384564C103.903 0.36373 103.304 0.962688 102.699 1.07727C102.012 1.20227 100.179 4.51998 99.9494 5.16061C99.715 5.79602 98.1004 8.21269 98.1004 8.21269C98.1004 8.21269 96.8504 10.0148 95.9286 11.671C95.0119 13.3325 93.6213 13.8377 93.6213 13.8377C93.6213 13.8377 92.7098 14.3429 91.3296 14.5981C89.9546 14.8533 87.4233 15.8637 86.3869 15.7335C85.3556 15.6085 81.9233 17.4002 80.5431 18.1658C79.1681 18.9314 77.4494 20.5929 76.6473 21.3585C75.8452 22.1189 74.6786 22.3846 74.6786 22.3846C74.6786 22.3846 72.0431 23.5252 71.5848 23.6554C71.1265 23.7804 70.2098 25.046 70.439 25.6866C70.6681 26.3221 69.5171 27.0877 69.5171 27.0877C69.5171 27.0877 67.689 28.2283 66.8869 29.1189C66.689 29.3377 66.6004 29.6294 66.5848 29.9471L3.53792 12.9471C3.53792 12.9471 2.84001 9.11894 2.15251 9.37415C1.4598 9.62936 0.20459 10.6346 0.20459 11.27C0.20459 11.9106 0.543132 14.7283 0.543132 14.7283C0.543132 14.7283 2.38167 15.6137 2.61084 14.9731C2.84001 14.3429 66.4181 31.3846 66.8661 31.5096C67.0171 31.9731 67.1838 32.3898 67.2254 32.5773L66.6421 34.4731C66.6421 34.4731 68.3713 34.6189 68.715 35.2544C69.0588 35.895 70.9025 38.046 70.9025 38.046L72.7306 36.9054L74.4598 36.7752C74.4598 36.7752 76.9754 35.2491 77.09 34.2283C77.2046 33.2075 78.5952 30.796 78.5952 30.796L81.1056 30.6606L81.2254 33.8481C81.2254 33.8481 80.314 34.7439 79.7411 34.7439C79.1681 34.7439 78.7098 35.3741 78.1317 36.395C77.5588 37.4158 77.7931 37.9262 77.7931 39.9627C77.7931 42.0044 77.5536 41.7596 76.7463 42.395C75.9442 43.0304 76.8661 44.5616 76.8661 44.5616C76.8661 44.5616 75.9546 47.8689 75.7254 48.8898C75.4963 49.9054 76.8765 53.8689 77.4494 54.8898C78.0223 55.9106 80.0796 61.895 80.0796 61.895L79.3973 65.2179C79.3973 65.2179 77.4494 65.4731 76.9911 65.2179C76.5275 64.9627 75.2619 67.2491 75.2619 67.2491L43.3452 45.8325L42.6629 47.1033L74.34 70.0616L91.7931 82.9366C91.7931 82.9366 88.4546 85.7335 88.34 85.0981C88.2254 84.4627 87.0796 82.5408 86.3921 82.2856C85.7046 82.0304 84.1004 85.7283 83.6369 85.8585C83.1786 85.9835 80.7671 87.6398 80.7671 87.6398L46.34 74.6346L46.6838 77.5773L94.7671 96.5669L126.46 110.843C126.46 110.843 136.33 117.744 138.512 119.655C140.694 121.572 146.085 118.879 146.085 118.879C146.085 118.879 158.361 123.353 160.085 123.228C161.804 123.098 164.1 119.905 164.1 119.905L161.809 119.254C161.809 119.254 156.522 118.254 155.142 118.765C153.767 119.275 145.382 114.681 145.382 114.681L125.293 105.244L103.038 87.2648L104.866 85.0981L111.194 76.421L118.528 68.2752C119.33 67.3846 119.345 67.5044 120.033 66.3585C120.72 65.2075 119.684 64.4366 119.569 63.546C119.455 62.6554 118.996 63.046 118.767 62.4106C118.538 61.77 118.184 60.8741 117.72 60.1085C117.262 59.3429 116.694 59.2231 115.772 58.4575C114.856 57.6919 113.475 57.6919 112.439 57.5669C111.408 57.4366 110.835 56.921 110.835 56.921C110.835 56.921 111.418 56.2908 111.876 55.27C112.335 54.2491 113.475 53.9991 114.048 53.9991C114.621 53.9991 115.324 51.5616 115.554 51.0512C115.783 50.5408 115.903 48.9002 116.017 48.2648C116.132 47.6241 115.423 46.8585 114.85 45.9679C114.278 45.0721 113.715 45.3273 113.142 45.0721C112.569 44.8169 110.949 44.296 109.689 44.4262C108.429 44.5512 106.934 43.6762 105.673 43.8012C104.408 43.9262 103.033 43.145 102.46 43.4002C101.882 43.6554 101.08 41.6294 101.996 40.6085C102.913 39.5929 102.47 39.7023 103.163 38.9366C103.85 38.171 105.335 36.0044 105.793 35.3689C106.251 34.7283 106.142 35.3794 106.715 34.7439C107.288 34.1033 109.231 34.1033 110.153 34.2283C111.069 34.3585 111.996 33.9731 112.804 34.2283C113.606 34.4835 114.522 34.3533 115.554 34.6085C116.585 34.8637 117.85 35.4991 119.569 36.395C121.293 37.2856 122.668 37.0356 123.929 37.421C125.194 37.8012 125.887 37.9158 128.069 38.046C130.246 38.171 130.705 38.5564 131.621 38.5564C132.538 38.5564 134.835 39.4523 134.835 39.4523L137.345 39.3377C137.345 39.3377 138.455 39.2544 139.616 39.1814C139.033 42.3794 129.554 94.4002 129.554 94.4002C129.554 94.4002 126.34 93.8898 126.34 94.4002C126.34 94.9106 126.564 96.7023 127.022 97.2127C127.481 97.7231 128.751 98.1033 128.751 98.1033L128.288 103.838L129.21 104.082L129.673 98.1033L131.283 97.0773C131.283 97.0773 131.611 95.1814 131.038 94.671C130.486 94.1762 140.163 43.0096 140.903 39.1137C141.199 39.0981 141.699 39.0721 141.824 39.0721C142.512 39.0721 142.866 38.6866 143.21 38.1762C143.554 37.671 144.47 36.7856 144.356 36.1502C144.241 35.5096 145.158 35.2544 145.158 35.2544C145.158 35.2544 146.429 34.9887 146.085 33.7179C145.741 32.4419 145.955 33.4731 146.184 32.1971C146.413 30.9262 145.736 31.171 145.158 30.2804C144.585 29.3898 144.007 29.77 143.09 29.3898C142.173 29.0044 141.481 29.2491 140.559 29.1189C139.642 28.9939 139.642 29.5148 138.147 29.3898C136.658 29.2596 136.324 30.4158 136.324 30.4158C136.324 30.4158 132.658 30.0304 131.283 29.9002C129.903 29.7752 128.408 28.6241 127.606 28.1137C126.804 27.6085 125.184 27.8637 124.611 27.2231C124.038 26.5877 122.897 25.9471 122.783 25.4366C122.668 24.9314 116.574 22.1189 116.116 21.3585C115.658 20.5929 114.975 20.7127 114.288 20.3273C113.6 19.9471 110.501 19.4314 109.929 19.3012C109.356 19.1762 109.121 19.5721 109.007 18.6814C108.892 17.7856 109.246 17.52 109.59 16.6241C109.934 15.7335 110.387 15.3533 111.074 14.4627C111.762 13.5721 111.423 12.8221 111.996 11.671C112.574 10.5252 112.106 10.2544 112.22 8.5929C112.335 6.93665 111.986 7.32206 111.757 5.53561C111.528 3.75435 110.725 4.25956 110.153 3.23873C109.574 2.2179 108.778 2.0929 107.397 1.45748C106.022 0.816855 105.455 0.70748 104.767 0.452272C104.684 0.421021 104.59 0.389772 104.507 0.384564ZM95.8088 69.6814L100.288 70.0616L102.356 71.8429L97.8765 75.0356L95.8088 69.6814ZM112.804 99.2439L117.965 103.322L112.1 100.78L112.804 99.2439ZM137.929 114.546C138.387 114.546 142.751 116.978 142.751 116.978L141.824 118.114L137.929 114.546Z" fill="black"/>
</g>
</svg>
