<svg width="1440" height="346" viewBox="0 0 1440 346" fill="none" xmlns="http://www.w3.org/2000/svg">
<mask id="mask0_119_7794" style="mask-type:luminance" maskUnits="userSpaceOnUse" x="0" y="0" width="1440" height="220">
<path d="M0 0H1440V219.516H0V0Z" fill="#EDF4FF"/>
</mask>
<g mask="url(#mask0_119_7794)">
<path d="M0 43.5521L105.177 18.3438C107.927 17.6875 110.609 16.901 113.208 15.9896L144.146 5.16146C153.182 2 163.115 0.359375 173.188 0.359375H189.943C205.109 0.359375 219.818 4.08854 231.568 10.9167L336.578 71.9375L484.745 151.271C493.396 155.906 503.531 158.948 514.234 160.13L616.104 171.354C619.438 171.724 622.802 171.906 626.177 171.906H733.068C743.854 171.906 754.474 170.021 763.995 166.417L935.906 101.286C937.703 100.609 939.542 99.9844 941.422 99.4271L990.839 84.7083C1000.96 81.6927 1011.98 80.526 1022.91 81.3177L1077.74 85.2813C1085.55 85.8438 1093.15 87.3958 1100.18 89.8594L1188.13 120.698C1202.84 125.854 1219.72 126.917 1235.47 123.682L1267.74 117.047C1281.57 114.208 1296.33 114.667 1309.76 118.365L1325.09 122.589C1336.69 125.781 1349.32 126.573 1361.52 124.87L1440 113.901V218.807H65.7969C29.4583 218.807 0 197.854 0 172V43.5521Z" fill="#EDF4FF" fill-opacity="0.3"/>
</g>
<path d="M1440 60.3802L1334.82 35.1666C1332.08 34.5104 1329.39 33.7239 1326.79 32.8125L1295.85 21.9895C1286.82 18.8281 1276.89 17.1823 1266.81 17.1823H1250.06C1234.89 17.1823 1220.18 20.9114 1208.44 27.7395L1103.42 88.7656L955.255 168.099C946.604 172.729 936.469 175.776 925.766 176.953L823.896 188.182C820.563 188.547 817.198 188.734 813.823 188.734H706.932C696.146 188.734 685.526 186.844 676.005 183.24L504.094 118.115C502.297 117.432 500.458 116.812 498.578 116.25L449.161 101.531C439.036 98.5156 428.016 97.3489 417.094 98.1406L362.255 102.104C354.453 102.667 346.854 104.219 339.818 106.687L251.875 137.521C237.167 142.677 220.281 143.745 204.526 140.505L172.255 133.875C158.427 131.031 143.672 131.495 130.245 135.193L114.911 139.411C103.313 142.609 90.6823 143.396 78.4792 141.693L0 130.724V235.63H1374.2C1410.54 235.63 1440 214.677 1440 188.828V60.3802Z" fill="#EDF4FF" fill-opacity="0.5"/>
<path d="M1265.28 136.724L1246.09 142.229C1229.45 147 1215.84 153.839 1200.15 146.729L1174.64 132.427C1157.71 124.76 1147.4 130.609 1129.78 136.724L1096.35 146.729C1089.23 149.198 1042.35 179.359 1034.78 179.536L970.234 215.526C958.318 222.172 945.052 225.12 931.484 223.76C884.109 219.016 771.698 207.021 767.37 208.141L610.927 225.641C604.958 227.182 598.802 227.964 592.62 227.964H483.354C473.349 227.964 463.458 225.922 454.344 221.964L327.62 166.979C323.057 165 318.292 163.495 313.396 162.484L159.849 130.859C148.984 128.62 137.719 128.88 126.979 131.62L0 164V345.755H1440V186.823L1311.06 138.516C1296.44 133.042 1280.32 132.406 1265.28 136.724Z" fill="#EDF4FF"/>
</svg>
